#!OML:ASF H:\Male1\Project 1\Capture day 1\Session 1\Male1.ASF
:FULLY-SPECIFIED
:DEGREES
145
root 33.557 15.2833 1.33067 2.47996 104.102 4.03351
lowerback 6.2335 5.62155 6.48714
upperback 3.76632 7.94473 -1.60412
thorax 1.55332 4.19829 -5.57331
lowerneck 7.40891 17.6871 22.2996
upperneck 3.29266 25.5879 -12.029
head 4.13547 13.0468 -5.58158
rclavicle 6.24681e-014 -2.51463e-014
rhumerus -55.9337 -1.23274 -83.3252
rradius 65.3
rwrist -42.8054
rhand -35.8899 5.1661
rfingers 7.12502
rthumb -9.00354 -24.6218
lclavicle 6.24681e-014 -2.51463e-014
lhumerus -31.8992 8.21617 76.8967
lradius 43.2579
lwrist -3.28492
lhand -14.0708 5.79218
lfingers 7.12502
lthumb 12.0608 35.4246
rfemur -7.492 18.6295 28.8942
rtibia 32.8804
rfoot -40.9414 -34.4211
rtoes -1.52224
lfemur -13.1505 -22.9182 -17.4061
ltibia 35.1691
lfoot -21.8041 11.3384
ltoes -10.6303
146
root 33.5535 15.2835 1.3227 1.58367 104.591 3.14874
lowerback 6.06373 5.76426 6.38224
upperback 3.75572 8.12051 -1.68768
thorax 1.65929 4.28901 -5.58375
lowerneck 7.40934 17.8341 22.0458
upperneck 3.13961 25.7565 -12.0042
head 4.08075 13.1238 -5.53292
rclavicle 3.36692e-014 -8.44835e-015
rhumerus -55.7713 -1.55267 -83.2488
rradius 64.9921
rwrist -42.6646
rhand -35.7222 4.97484
rfingers 7.12502
rthumb -8.84177 -24.8199
lclavicle 3.36692e-014 -8.44835e-015
lhumerus -31.3449 6.60877 77.8443
lradius 43.9101
lwrist -2.54891
lhand -14.5312 5.27295
lfingers 7.12502
lthumb 11.6169 34.9309
rfemur -7.33223 18.5627 28.7135
rtibia 32.7808
rfoot -41.4319 -34.5385
rtoes -1.12384
lfemur -13.2604 -22.8325 -17.6465
ltibia 35.2717
lfoot -21.4664 10.8188
ltoes -10.5257
147
root 33.5474 15.2757 1.31674 1.1326 105.019 2.83903
lowerback 6.06993 5.82977 6.2901
upperback 3.74201 8.20471 -1.6967
thorax 1.64151 4.32858 -5.54517
lowerneck 7.55905 18.0888 22.1358
upperneck 3.07943 26.1463 -12.1927
head 4.13907 13.3196 -5.55066
rclavicle 9.9616e-014 -1.70955e-014
rhumerus -55.6439 -1.59734 -83.256
rradius 64.7222
rwrist -42.465
rhand -35.5285 4.40369
rfingers 7.12502
rthumb -8.65484 -25.3989
lclavicle 9.9616e-014 -1.70955e-014
lhumerus -30.9385 5.35671 78.5841
lradius 44.4923
lwrist -1.62649
lhand -15.0309 5.03796
lfingers 7.12502
lthumb 11.1349 34.7225
rfemur -7.10432 18.5773 28.7212
rtibia 32.7507
rfoot -41.8664 -34.765
rtoes -0.963168
lfemur -13.2324 -22.5368 -17.7651
ltibia 35.3277
lfoot -21.2642 10.3327
ltoes -11.165
148
root 33.5379 15.2793 1.30979 1.01125 105.327 2.84727
lowerback 6.12001 5.94096 6.3448
upperback 3.68678 8.35951 -1.74272
thorax 1.59406 4.40494 -5.63318
lowerneck 7.68437 18.1764 22.3175
upperneck 3.11698 26.3236 -12.3607
head 4.20654 13.4137 -5.59628
rclavicle -9.52676e-014 2.34566e-014
rhumerus -55.6035 -1.80819 -83.2554
rradius 64.4653
rwrist -42.1427
rhand -35.1874 4.14966
rfingers 7.12502
rthumb -8.32568 -25.6663
lclavicle -9.52676e-014 2.34566e-014
lhumerus -30.5199 4.02703 79.214
lradius 44.9334
lwrist -0.498095
lhand -15.6488 4.95871
lfingers 7.12502
lthumb 10.5389 34.6745
rfemur -6.99606 18.3333 28.7163
rtibia 32.8024
rfoot -42.0918 -34.7942
rtoes -1.0924
lfemur -13.0875 -23.3885 -17.9044
ltibia 35.2974
lfoot -21.3074 10.8469
ltoes -10.7762
149
root 33.5272 15.2805 1.29877 0.293517 105.653 2.03117
lowerback 5.91893 6.11299 6.25512
upperback 3.59117 8.57239 -1.89437
thorax 1.6472 4.51023 -5.72314
lowerneck 7.66936 18.1732 22.4468
upperneck 3.26618 26.3414 -12.3196
head 4.26777 13.4265 -5.5851
rclavicle -1.41758e-013 1.86858e-014
rhumerus -55.6164 -2.21793 -83.2012
rradius 64.1528
rwrist -41.7621
rhand -34.9057 4.51702
rfingers 7.12502
rthumb -8.05379 -25.3095
lclavicle -1.41758e-013 1.86858e-014
lhumerus -30.0836 2.71568 79.7823
lradius 45.1713
lwrist 0.37229
lhand -16.1196 4.56458
lfingers 7.12502
lthumb 10.0848 34.3029
rfemur -7.172 17.7203 28.3072
rtibia 32.8913
rfoot -41.9055 -34.6775
rtoes -1.74288
lfemur -13.1947 -23.6695 -18.1569
ltibia 35.1964
lfoot -21.2266 10.8299
ltoes -10.3689
150
root 33.518 15.2775 1.28667 -0.752877 105.99 0.86137
lowerback 5.71722 6.2905 6.02302
upperback 3.46954 8.78643 -2.06409
thorax 1.6547 4.61088 -5.75564
lowerneck 7.51554 18.0841 22.5629
upperneck 3.62911 26.2206 -12.09
head 4.36528 13.3716 -5.51857
rclavicle 4.98701e-014 -5.96354e-015
rhumerus -55.6275 -2.61291 -83.1266
rradius 63.7137
rwrist -41.4621
rhand -34.7291 4.88702
rfingers 7.12502
rthumb -7.88335 -24.946
lclavicle 4.98701e-014 -5.96354e-015
lhumerus -29.7748 1.41746 80.3063
lradius 45.34
lwrist 1.08379
lhand -16.6675 3.29878
lfingers 7.12502
lthumb 9.55615 33.0621
rfemur -7.36117 17.1623 27.7955
rtibia 33.0168
rfoot -41.7024 -34.5716
rtoes -2.45613
lfemur -13.4025 -23.2341 -18.4481
ltibia 35.0555
lfoot -20.9276 10.2058
ltoes -10.7531
151
root 33.5123 15.2783 1.27839 -1.88941 106.313 -0.218838
lowerback 5.70691 6.40438 5.68964
upperback 3.35903 8.92295 -2.20004
thorax 1.53456 4.66729 -5.72305
lowerneck 7.46029 17.952 22.6788
upperneck 3.88101 26.0512 -11.846
head 4.40378 13.2954 -5.4717
rclavicle 9.08694e-014 -2.60408e-014
rhumerus -55.562 -2.76219 -83.1388
rradius 63.1045
rwrist -41.2369
rhand -34.5924 4.83815
rfingers 7.12502
rthumb -7.75137 -24.9998
lclavicle 9.08694e-014 -2.60408e-014
lhumerus -29.526 0.308887 80.6603
lradius 45.3513
lwrist 1.62621
lhand -17.182 3.90895
lfingers 7.12502
lthumb 9.05974 33.6944
rfemur -7.29901 16.8527 27.4364
rtibia 33.167
rfoot -41.9851 -34.3583
rtoes -2.37269
lfemur -13.3303 -23.7092 -18.8784
ltibia 34.9014
lfoot -20.7689 10.3724
ltoes -11.1064
